<?xml version="1.0" standalone="no"?>
<!DOCTYPE svg PUBLIC "-//W3C//DTD SVG 20010904//EN"
 "http://www.w3.org/TR/2001/REC-SVG-20010904/DTD/svg10.dtd">
<svg version="1.0" xmlns="http://www.w3.org/2000/svg"
 width="1000.000000pt" height="1000.000000pt" viewBox="0 0 1000.000000 1000.000000"
 preserveAspectRatio="xMidYMid meet">
<metadata>
Created by potrace 1.13, written by Peter Selinger 2001-2015
</metadata>
<g transform="translate(0.000000,1000.000000) scale(0.100000,-0.100000)"
fill="#000000" stroke="none">
<path d="M5035 9634 c-50 -8 -137 -35 -175 -54 -134 -68 -243 -229 -295 -434
-44 -176 -46 -241 -43 -1495 l3 -1185 785 -477 785 -478 630 -1 c671 0 740 -4
890 -51 88 -27 134 -50 181 -91 42 -37 44 -35 73 59 52 164 67 371 36 502 -55
234 -242 400 -526 471 -46 11 -93 24 -104 27 -11 4 -405 10 -875 13 l-855 5
-3 1240 c-2 1110 -1 1250 14 1340 19 120 69 264 123 357 l40 68 -97 49 c-105
53 -213 92 -313 115 -69 16 -225 27 -274 20z"/>
<path d="M5780 7905 l0 -522 45 -6 c24 -4 80 -20 124 -37 199 -77 336 -215
400 -403 22 -63 28 -64 151 -5 69 33 100 57 170 127 141 142 210 305 210 495
-1 428 -364 731 -1032 861 l-68 13 0 -523z"/>
<path d="M4185 8172 c-286 -150 -514 -345 -656 -561 -27 -40 -49 -84 -49 -97
0 -39 48 -154 97 -233 123 -197 331 -396 621 -595 l112 -77 0 810 c0 446 -3
811 -7 811 -5 0 -57 -26 -118 -58z"/>
<path d="M3248 7288 c-160 -219 -292 -508 -345 -758 -28 -130 -25 -377 6 -490
52 -196 147 -357 296 -505 l91 -90 1319 -711 c726 -391 1351 -731 1389 -755
153 -97 314 -281 368 -421 13 -32 25 -58 28 -58 13 1 107 145 145 225 170 352
141 712 -83 1060 -118 184 -333 396 -562 557 -109 76 -1438 891 -1550 950
-341 180 -694 462 -864 691 -65 88 -145 235 -171 315 -9 28 -18 52 -19 52 -1
0 -23 -28 -48 -62z"/>
<path d="M2202 6428 c-162 -491 -65 -809 282 -925 76 -26 92 -27 263 -28 100
0 185 3 189 7 4 4 -13 29 -37 55 -175 187 -261 437 -245 712 3 64 9 130 12
147 l6 31 -89 7 c-119 10 -214 30 -280 61 -30 14 -59 25 -63 25 -4 0 -21 -42
-38 -92z"/>
<path d="M4590 2708 c0 -1224 -3 -1791 -11 -1853 -15 -123 -43 -226 -84 -314
-20 -41 -34 -75 -33 -76 8 -7 190 -68 261 -87 67 -18 109 -22 232 -22 139 0
155 2 218 26 170 68 282 199 350 413 l22 70 2 1530 2 1530 -471 270 c-259 149
-475 272 -480 273 -4 2 -8 -790 -8 -1760z"/>
<path d="M3223 4007 c-389 -158 -567 -487 -483 -896 89 -439 442 -699 1060
-780 120 -16 348 -24 443 -16 l87 7 0 518 0 519 -32 5 c-18 3 -69 7 -113 10
-205 15 -422 73 -550 148 -172 101 -259 240 -311 496 -2 12 -8 22 -12 22 -4 0
-44 -15 -89 -33z"/>
<path d="M5760 3245 c0 -305 4 -555 8 -555 5 0 40 22 78 49 158 111 311 283
395 445 48 91 48 114 0 211 -64 129 -195 254 -369 354 -49 28 -94 51 -101 51
-8 0 -11 -149 -11 -555z"/>
</g>
</svg>
